# xmcd CD database file
#
# Track frame offsets:
#	150
#	20689
#	39761
#	55125
#	73722
#	94029
#	115321
#	133008
#	152670
#	172641
#	190403
#	210423
#	230600
#	252052
#	271830
#	287113
#	308494
#
# Disc length: 4383 seconds
#
# Revision: 2
# Processed by: cddbd v1.5.1PL0 Copyright (c) Steve Scherf et al.
# Submitted via: CDex 1.51
#
DISCID=df111d11
DTITLE=Various Artist - 冬の恋歌(ソナタ) オリジナルサウンドトラック
DYEAR=1900
DGENRE=Soundtrack
TTITLE0=最初から今まで
TTITLE1=My memory
TTITLE2=初めて
TTITLE3=あなただけが
TTITLE4=My memory
TTITLE5=離せない恋
TTITLE6=始まり
TTITLE7=あなただけが
TTITLE8=My memory
TTITLE9=忘れないで
TTITLE10=記憶の中へ
TTITLE11=恋人
TTITLE12=すみれ
TTITLE13=あなただけが
TTITLE14=初めて
TTITLE15=すみれ
TTITLE16=最初から今まで
EXTD=
EXTT0=
EXTT1=
EXTT2=
EXTT3=
EXTT4=
EXTT5=
EXTT6=
EXTT7=
EXTT8=
EXTT9=
EXTT10=
EXTT11=
EXTT12=
EXTT13=
EXTT14=
EXTT15=
EXTT16=
PLAYORDER=
